<svg width="29" height="29" viewBox="0 0 29 29" fill="none" xmlns="http://www.w3.org/2000/svg">
<path d="M15.1934 2.68945C15.2266 2.77799 15.2432 2.8444 15.2432 2.88867C15.2432 2.97721 15.1989 3.05469 15.1104 3.12109C15.0329 3.17643 14.9333 3.2207 14.8115 3.25391C14.7008 3.28711 14.5846 3.31478 14.4629 3.33691C14.3411 3.34798 14.2415 3.35352 14.1641 3.35352C14.0866 3.35352 14.0091 3.35352 13.9316 3.35352C13.8652 3.34245 13.7988 3.33691 13.7324 3.33691C13.5 3.33691 13.3174 3.39225 13.1846 3.50293C13.0628 3.61361 12.9632 3.77962 12.8857 4.00098C12.8193 4.21126 12.764 4.47689 12.7197 4.79785C12.6865 5.11882 12.6423 5.48958 12.5869 5.91016C12.5537 6.16471 12.515 6.43034 12.4707 6.70703C12.4264 6.97266 12.3822 7.23275 12.3379 7.4873C12.3047 7.74186 12.2715 7.99089 12.2383 8.23438C12.2161 8.4668 12.2051 8.68262 12.2051 8.88184C12.2051 9.04785 12.2106 9.21387 12.2217 9.37988C12.2327 9.53483 12.2383 9.68978 12.2383 9.84473C12.2383 10.1878 12.1829 10.5254 12.0723 10.8574C11.9727 11.1895 11.8952 11.5215 11.8398 11.8535C11.8066 12.1523 11.7624 12.4567 11.707 12.7666C11.6628 13.0765 11.6296 13.3532 11.6074 13.5967C11.5632 14.0505 11.5299 14.4821 11.5078 14.8916C11.4857 15.3011 11.458 15.6885 11.4248 16.0537C11.4027 16.4189 11.3639 16.7676 11.3086 17.0996C11.2643 17.4316 11.1924 17.7526 11.0928 18.0625V18.0957C11.0928 18.1178 11.0928 18.1455 11.0928 18.1787C11.1038 18.2008 11.1094 18.223 11.1094 18.2451C11.1094 18.3226 11.0651 18.4056 10.9766 18.4941C10.8991 18.5827 10.8604 18.7044 10.8604 18.8594C10.8604 18.959 10.8825 19.125 10.9268 19.3574C10.9821 19.5788 11.0098 19.7946 11.0098 20.0049C11.0098 20.0824 10.9987 20.1764 10.9766 20.2871C11.0319 20.2982 11.0817 20.3092 11.126 20.3203C11.1702 20.3203 11.2201 20.3203 11.2754 20.3203C11.4967 20.3203 11.707 20.2926 11.9062 20.2373C12.1055 20.182 12.2992 20.1543 12.4873 20.1543C12.5758 20.1543 12.681 20.1764 12.8027 20.2207C12.9355 20.2539 13.002 20.3369 13.002 20.4697C13.002 20.5251 12.8525 20.597 12.5537 20.6855C12.266 20.7741 11.9339 20.8626 11.5576 20.9512C11.1813 21.0397 10.8161 21.1283 10.4619 21.2168C10.1077 21.2943 9.86979 21.3607 9.74805 21.416C9.69271 21.4271 9.6429 21.4326 9.59863 21.4326C9.56543 21.4437 9.52669 21.4492 9.48242 21.4492C9.39388 21.4492 9.30534 21.4437 9.2168 21.4326C9.12826 21.4215 9.01758 21.416 8.88477 21.416C8.72982 21.416 8.55827 21.4326 8.37012 21.4658C8.18197 21.5101 7.98828 21.5488 7.78906 21.582C7.58984 21.6263 7.39616 21.665 7.20801 21.6982C7.01986 21.7425 6.84831 21.7646 6.69336 21.7646C6.51628 21.7646 6.37793 21.7314 6.27832 21.665C6.18978 21.5986 6.14551 21.4714 6.14551 21.2832C6.14551 21.1504 6.20085 21.0508 6.31152 20.9844C6.4222 20.918 6.56055 20.8682 6.72656 20.835C6.89258 20.8018 7.06966 20.7741 7.25781 20.752C7.44596 20.7298 7.61198 20.7021 7.75586 20.6689C7.78906 20.6579 7.82227 20.6357 7.85547 20.6025C7.89974 20.5693 7.96615 20.5527 8.05469 20.5527H8.32031C8.35352 20.5527 8.39225 20.4531 8.43652 20.2539C8.48079 20.0547 8.52507 19.8001 8.56934 19.4902C8.61361 19.1803 8.65788 18.8372 8.70215 18.4609C8.74642 18.0846 8.78516 17.7249 8.81836 17.3818C8.86263 17.0277 8.89583 16.7122 8.91797 16.4355C8.95117 16.1478 8.97884 15.9486 9.00098 15.8379C9.02311 15.7161 9.06185 15.5833 9.11719 15.4395C9.17253 15.2956 9.21126 15.1406 9.2334 14.9746C9.28874 14.5208 9.32747 14.0505 9.34961 13.5635C9.37174 13.0765 9.42155 12.5951 9.49902 12.1191C9.51009 12.0085 9.53223 11.9089 9.56543 11.8203C9.59863 11.7207 9.6263 11.6266 9.64844 11.5381C9.68164 11.4495 9.70931 11.3555 9.73145 11.2559C9.75358 11.1452 9.76465 11.0179 9.76465 10.874C9.76465 10.6969 9.75911 10.5254 9.74805 10.3594C9.73698 10.1934 9.73145 10.0273 9.73145 9.86133C9.73145 9.60677 9.76465 9.37988 9.83105 9.18066C9.90853 8.97038 9.95833 8.74902 9.98047 8.5166C10.0026 8.26204 10.0137 8.04622 10.0137 7.86914C10.0247 7.68099 10.0579 7.48177 10.1133 7.27148C10.1354 7.18294 10.1742 7.07227 10.2295 6.93945C10.2959 6.80664 10.3402 6.67383 10.3623 6.54102C10.3955 6.29753 10.4121 6.05957 10.4121 5.82715C10.4232 5.58366 10.4287 5.35124 10.4287 5.12988C10.4398 4.89746 10.4564 4.67611 10.4785 4.46582C10.5007 4.24447 10.5449 4.02865 10.6113 3.81836C10.5228 3.77409 10.4232 3.75195 10.3125 3.75195C10.1133 3.75195 9.90853 3.80176 9.69824 3.90137C9.49902 4.00098 9.30534 4.05078 9.11719 4.05078C9.03971 4.03971 8.95117 3.99544 8.85156 3.91797C8.76302 3.84049 8.71875 3.74089 8.71875 3.61914C8.71875 3.40885 8.79069 3.28158 8.93457 3.2373C9.08952 3.18197 9.2832 3.1543 9.51562 3.1543H10.0635C10.1963 3.1543 10.3291 3.14876 10.4619 3.1377C10.5947 3.12663 10.7275 3.10449 10.8604 3.07129C10.96 3.04915 11.0651 2.99935 11.1758 2.92188C11.2975 2.83333 11.4193 2.75033 11.541 2.67285C11.6738 2.58431 11.8066 2.50684 11.9395 2.44043C12.0723 2.37402 12.2161 2.34082 12.3711 2.34082C12.4707 2.34082 12.5648 2.36849 12.6533 2.42383C12.7419 2.4681 12.8193 2.52344 12.8857 2.58984C12.9632 2.64518 13.0296 2.70052 13.085 2.75586C13.1403 2.80013 13.1846 2.82227 13.2178 2.82227C13.251 2.82227 13.3174 2.80566 13.417 2.77246C13.5277 2.73926 13.6494 2.70605 13.7822 2.67285C13.9261 2.63965 14.0755 2.60645 14.2305 2.57324C14.3854 2.54004 14.5348 2.52344 14.6787 2.52344C14.9111 2.52344 15.0827 2.57878 15.1934 2.68945Z" fill="#00031F"/>
<path d="M26.5518 10.7266C26.5094 10.8789 26.4163 10.9847 26.2725 11.0439C26.137 11.1032 25.9805 11.1413 25.8027 11.1582C25.6335 11.1751 25.4642 11.1878 25.2949 11.1963C25.1341 11.2048 25.0114 11.2386 24.9268 11.2979C24.876 11.3317 24.8337 11.3867 24.7998 11.4629C24.7744 11.5391 24.749 11.6279 24.7236 11.7295C24.6982 11.8226 24.6729 11.9242 24.6475 12.0342C24.6221 12.1442 24.5924 12.2458 24.5586 12.3389C24.4655 12.4574 24.3936 12.5843 24.3428 12.7197C24.3005 12.8551 24.2666 12.999 24.2412 13.1514C24.2158 13.3037 24.1904 13.4645 24.165 13.6338C24.1481 13.7946 24.1185 13.9639 24.0762 14.1416C23.9661 14.3617 23.8561 14.6283 23.7461 14.9414C23.6445 15.2461 23.5007 15.5762 23.3145 15.9316C23.2975 15.974 23.2637 16.012 23.2129 16.0459C23.1706 16.0798 23.1452 16.1094 23.1367 16.1348C23.0944 16.2109 23.0817 16.2998 23.0986 16.4014C23.1156 16.4945 23.0944 16.5918 23.0352 16.6934C23.0182 16.7188 22.9844 16.7399 22.9336 16.7568C22.8828 16.7653 22.8532 16.778 22.8447 16.7949C22.8109 16.8711 22.7939 16.96 22.7939 17.0615C22.8024 17.1631 22.7855 17.2604 22.7432 17.3535C22.7347 17.3789 22.7051 17.417 22.6543 17.4678C22.6035 17.5101 22.5739 17.5397 22.5654 17.5566C22.5316 17.6582 22.5146 17.7428 22.5146 17.8105C22.5231 17.8698 22.5062 17.9417 22.4639 18.0264C22.4469 18.0433 22.4258 18.0518 22.4004 18.0518C22.3835 18.0433 22.375 18.0645 22.375 18.1152V18.2168C22.1803 18.6484 21.9476 19.0674 21.6768 19.4736C21.4059 19.8714 21.1647 20.2734 20.9531 20.6797C20.9362 20.7135 20.9235 20.7601 20.915 20.8193C20.9066 20.8786 20.8896 20.9251 20.8643 20.959C20.8473 20.9759 20.8092 20.9928 20.75 21.0098C20.6992 21.0267 20.6696 21.0436 20.6611 21.0605C20.6273 21.1367 20.6146 21.2214 20.623 21.3145C20.6315 21.3991 20.6146 21.471 20.5723 21.5303C20.5384 21.5895 20.4749 21.6657 20.3818 21.7588C20.2887 21.8519 20.1872 21.9535 20.0771 22.0635C19.9756 22.1735 19.8783 22.292 19.7852 22.4189C19.7005 22.5374 19.6455 22.6517 19.6201 22.7617C19.5947 22.8633 19.5439 22.9775 19.4678 23.1045C19.3916 23.2314 19.3027 23.3669 19.2012 23.5107C19.0996 23.6546 18.9938 23.8027 18.8838 23.9551C18.7738 24.099 18.6722 24.2386 18.5791 24.374C18.5537 24.4163 18.5029 24.484 18.4268 24.5771C18.3506 24.6702 18.3083 24.7633 18.2998 24.8564V24.9453C18.1898 25.0892 18.0671 25.2035 17.9316 25.2881C17.7962 25.3812 17.665 25.4277 17.5381 25.4277C17.445 25.4277 17.3519 25.3981 17.2588 25.3389C17.1742 25.2796 17.1064 25.1781 17.0557 25.0342C17.0218 24.9495 17.0007 24.8649 16.9922 24.7803C16.9922 24.6872 16.988 24.5814 16.9795 24.4629C16.9795 24.3359 16.9626 24.1921 16.9287 24.0312C16.9033 23.862 16.8525 23.6631 16.7764 23.4346C16.7594 23.3669 16.7214 23.3203 16.6621 23.2949C16.6113 23.2695 16.5859 23.223 16.5859 23.1553C16.5859 23.1299 16.5859 23.1045 16.5859 23.0791C16.5944 23.0452 16.5986 23.0156 16.5986 22.9902C16.5986 22.9479 16.5859 22.9014 16.5605 22.8506C16.5352 22.7913 16.514 22.7321 16.4971 22.6729C16.4548 22.4951 16.404 22.292 16.3447 22.0635C16.2855 21.8265 16.2262 21.5853 16.167 21.3398C16.1077 21.0944 16.0485 20.8574 15.9893 20.6289C15.9385 20.3919 15.8877 20.1888 15.8369 20.0195C15.8285 20.0026 15.8242 19.9814 15.8242 19.9561C15.8242 19.9391 15.8242 19.918 15.8242 19.8926C15.8327 19.8672 15.8369 19.846 15.8369 19.8291C15.82 19.7699 15.8031 19.6979 15.7861 19.6133C15.7692 19.5286 15.7396 19.4059 15.6973 19.2451C15.6549 19.0843 15.5915 18.877 15.5068 18.623C15.4307 18.3691 15.3206 18.0433 15.1768 17.6455C15.0837 17.3662 15.0202 17.0954 14.9863 16.833C14.9525 16.5706 14.8848 16.2702 14.7832 15.9316C14.7663 15.8893 14.7578 15.8005 14.7578 15.665C14.7663 15.5212 14.7155 15.3265 14.6055 15.0811C14.5632 14.988 14.542 14.8991 14.542 14.8145C14.5505 14.7214 14.5378 14.5902 14.5039 14.4209C14.4785 14.2939 14.4404 14.0951 14.3896 13.8242C14.3473 13.5534 14.2965 13.2783 14.2373 12.999C14.1781 12.7113 14.1188 12.4574 14.0596 12.2373C14.0088 12.0173 13.9665 11.8945 13.9326 11.8691C13.9157 11.8522 13.8522 11.8438 13.7422 11.8438C13.6491 11.8438 13.5729 11.8564 13.5137 11.8818C13.4629 11.8988 13.4163 11.9242 13.374 11.958C13.3402 11.9834 13.3063 12.0088 13.2725 12.0342C13.2471 12.0511 13.2174 12.0596 13.1836 12.0596H13.0566C12.9128 12.0596 12.7858 12.0384 12.6758 11.9961C12.5658 11.9538 12.5107 11.8564 12.5107 11.7041C12.5107 11.5856 12.5531 11.5052 12.6377 11.4629C12.7223 11.4206 12.8281 11.3952 12.9551 11.3867C13.0905 11.3783 13.2428 11.374 13.4121 11.374C13.5814 11.3656 13.7549 11.3402 13.9326 11.2979C14.0511 11.2725 14.1527 11.2301 14.2373 11.1709C14.3219 11.1117 14.4108 11.0566 14.5039 11.0059C14.5462 10.9889 14.6055 10.9805 14.6816 10.9805C14.7578 10.972 14.8255 10.9508 14.8848 10.917C14.9102 10.9001 14.9271 10.8831 14.9355 10.8662C14.944 10.8408 14.9525 10.8197 14.9609 10.8027C14.9779 10.7773 14.999 10.7562 15.0244 10.7393C15.0583 10.7223 15.109 10.7139 15.1768 10.7139C15.2868 10.7139 15.3926 10.7308 15.4941 10.7646C15.6042 10.7985 15.7184 10.8154 15.8369 10.8154C16.04 10.8154 16.2559 10.7816 16.4844 10.7139C16.7129 10.6462 16.9245 10.6123 17.1191 10.6123C17.2207 10.6123 17.3138 10.6292 17.3984 10.6631C17.4831 10.6885 17.5592 10.7393 17.627 10.8154C17.61 10.9339 17.5254 11.0143 17.373 11.0566C17.2207 11.0905 17.0557 11.1159 16.8779 11.1328C16.7087 11.1497 16.5521 11.1751 16.4082 11.209C16.2643 11.2344 16.1924 11.2936 16.1924 11.3867C16.1924 11.6745 16.2178 11.9876 16.2686 12.3262C16.3193 12.6562 16.3743 12.9694 16.4336 13.2656C16.4928 13.5534 16.5479 13.8073 16.5986 14.0273C16.6494 14.2389 16.679 14.3701 16.6875 14.4209C16.7298 14.7764 16.7637 15.1361 16.7891 15.5C16.8145 15.8639 16.8737 16.2321 16.9668 16.6045C16.9837 16.6976 16.9922 16.8034 16.9922 16.9219C16.9922 17.0404 17.0133 17.1842 17.0557 17.3535C17.0641 17.4128 17.0895 17.5101 17.1318 17.6455C17.1826 17.7809 17.2292 17.9248 17.2715 18.0771C17.3138 18.221 17.3519 18.3607 17.3857 18.4961C17.4281 18.623 17.4492 18.7161 17.4492 18.7754C17.4492 18.8177 17.445 18.8643 17.4365 18.915C17.4365 18.9658 17.4365 19.0124 17.4365 19.0547C17.4365 19.1562 17.4704 19.2832 17.5381 19.4355C17.6058 19.5794 17.6693 19.7402 17.7285 19.918C17.7454 19.9688 17.7624 20.0111 17.7793 20.0449C17.8047 20.0703 17.8174 20.0915 17.8174 20.1084C17.8682 20.2607 17.8978 20.4258 17.9062 20.6035C17.9232 20.7812 17.9613 20.9674 18.0205 21.1621C18.0713 21.2637 18.1221 21.4118 18.1729 21.6064C18.2321 21.8011 18.2913 21.9958 18.3506 22.1904C18.4098 22.3851 18.4691 22.5544 18.5283 22.6982C18.596 22.8421 18.668 22.9141 18.7441 22.9141C18.7865 22.9141 18.8245 22.8844 18.8584 22.8252C18.9007 22.766 18.943 22.6982 18.9854 22.6221C19.0277 22.5374 19.07 22.4486 19.1123 22.3555C19.1546 22.2624 19.1969 22.1777 19.2393 22.1016C19.3577 21.9069 19.472 21.7376 19.582 21.5938C19.6921 21.4414 19.7682 21.3271 19.8105 21.251C19.8444 21.2002 19.8613 21.1536 19.8613 21.1113C19.8613 21.0605 19.874 21.0098 19.8994 20.959L20.5723 19.918C20.5892 19.8841 20.6019 19.8418 20.6104 19.791C20.6188 19.7318 20.6357 19.681 20.6611 19.6387C20.695 19.5964 20.7246 19.5752 20.75 19.5752C20.7839 19.5667 20.8092 19.5498 20.8262 19.5244C20.8516 19.499 20.8685 19.4525 20.877 19.3848C20.8939 19.3171 20.9023 19.1943 20.9023 19.0166C20.9023 18.9235 20.915 18.8516 20.9404 18.8008C20.9658 18.7415 20.9912 18.6992 21.0166 18.6738C21.0505 18.6484 21.0801 18.6273 21.1055 18.6104C21.1309 18.5934 21.1436 18.5765 21.1436 18.5596C21.1436 18.5426 21.1393 18.5257 21.1309 18.5088C21.1309 18.4834 21.1309 18.4622 21.1309 18.4453C21.1309 18.4284 21.1351 18.4157 21.1436 18.4072C21.1943 18.3057 21.2536 18.1787 21.3213 18.0264C21.389 17.874 21.4525 17.7174 21.5117 17.5566C21.5794 17.3958 21.6471 17.2393 21.7148 17.0869C21.7826 16.9346 21.8418 16.8034 21.8926 16.6934C21.9772 16.5833 22.0365 16.5114 22.0703 16.4775C22.1042 16.4437 22.1211 16.3717 22.1211 16.2617V16.1221C22.1211 16.029 22.1338 15.974 22.1592 15.957C22.193 15.9401 22.2354 15.8724 22.2861 15.7539C22.3285 15.5677 22.3496 15.3857 22.3496 15.208C22.3496 15.0218 22.3877 14.8568 22.4639 14.7129C22.5485 14.5521 22.6247 14.3617 22.6924 14.1416C22.7601 13.9131 22.8193 13.6719 22.8701 13.418C22.9294 13.1556 22.9801 12.8932 23.0225 12.6309C23.0648 12.36 23.1029 12.1061 23.1367 11.8691C23.1029 11.8861 23.0775 11.8945 23.0605 11.8945C23.0182 11.8945 22.9717 11.8861 22.9209 11.8691C22.8786 11.8522 22.8236 11.8438 22.7559 11.8438C22.6882 11.8438 22.6331 11.8564 22.5908 11.8818C22.5485 11.8988 22.5104 11.9242 22.4766 11.958C22.4427 11.9834 22.4089 12.0088 22.375 12.0342C22.3496 12.0511 22.32 12.0596 22.2861 12.0596C22.2354 12.0596 22.1761 12.0596 22.1084 12.0596C22.0492 12.0511 21.9857 12.0384 21.918 12.0215C21.8587 11.9961 21.8079 11.9622 21.7656 11.9199C21.7233 11.8776 21.7021 11.8184 21.7021 11.7422C21.7021 11.5306 21.7952 11.4036 21.9814 11.3613C22.1676 11.3105 22.4215 11.2852 22.7432 11.2852C22.9971 11.2852 23.234 11.2259 23.4541 11.1074C23.6826 10.9889 23.9196 10.8324 24.165 10.6377C24.1904 10.6208 24.2285 10.5869 24.2793 10.5361C24.3385 10.4769 24.3893 10.4473 24.4316 10.4473H24.457C24.5671 10.4473 24.6432 10.4684 24.6855 10.5107C24.7279 10.5446 24.7533 10.5869 24.7617 10.6377C24.7786 10.68 24.7871 10.7223 24.7871 10.7646C24.7956 10.7985 24.8167 10.8154 24.8506 10.8154C24.9098 10.8154 24.9945 10.8027 25.1045 10.7773C25.2145 10.752 25.3288 10.7266 25.4473 10.7012C25.5742 10.6673 25.7012 10.6377 25.8281 10.6123C25.9551 10.5869 26.0736 10.5742 26.1836 10.5742C26.3698 10.5742 26.4925 10.625 26.5518 10.7266Z" fill="#00031F"/>
</svg>
