<svg width="649" height="556" viewBox="0 0 649 556" fill="none" xmlns="http://www.w3.org/2000/svg">
<path d="M313.581 526.823H318.247C318.333 527.426 318.507 527.962 318.769 528.431C319.032 528.907 319.37 529.312 319.782 529.646C320.193 529.98 320.669 530.235 321.209 530.413C321.742 530.59 322.321 530.679 322.946 530.679C324.075 530.679 325.059 530.399 325.897 529.837C326.735 529.284 327.384 528.474 327.846 527.409C328.308 526.35 328.539 525.065 328.539 523.552C328.539 521.997 328.308 520.69 327.846 519.632C327.377 518.573 326.724 517.774 325.886 517.235C325.048 516.695 324.078 516.425 322.978 516.425C322.36 516.425 321.788 516.507 321.262 516.67C320.73 516.833 320.257 517.071 319.845 517.384C319.433 517.703 319.093 518.09 318.823 518.545C318.546 518.999 318.354 519.518 318.247 520.1L313.581 520.079C313.702 519.078 314.004 518.112 314.487 517.181C314.963 516.258 315.605 515.431 316.415 514.699C317.218 513.975 318.176 513.399 319.291 512.973C320.399 512.554 321.653 512.345 323.052 512.345C324.998 512.345 326.738 512.785 328.272 513.666C329.799 514.546 331.007 515.821 331.894 517.49C332.775 519.159 333.215 521.18 333.215 523.552C333.215 525.931 332.768 527.955 331.873 529.624C330.978 531.293 329.764 532.565 328.23 533.438C326.696 534.319 324.97 534.759 323.052 534.759C321.788 534.759 320.616 534.582 319.536 534.227C318.45 533.872 317.487 533.353 316.649 532.671C315.811 531.997 315.13 531.169 314.604 530.189C314.071 529.209 313.73 528.087 313.581 526.823Z" fill="#A331FD"/>
<path d="M274.087 518.995C274.477 516.648 275.254 514.725 276.418 513.228C277.574 511.729 278.988 510.673 280.66 510.06C282.323 509.453 284.104 509.308 286.002 509.626C287.915 509.946 289.559 510.667 290.934 511.791C292.31 512.914 293.302 514.372 293.911 516.166C294.519 517.961 294.629 520.028 294.24 522.368C293.849 524.715 293.076 526.637 291.919 528.136C290.763 529.635 289.353 530.688 287.689 531.295C286.025 531.909 284.236 532.057 282.324 531.737C280.425 531.419 278.789 530.698 277.413 529.575C276.029 528.458 275.033 527.002 274.424 525.208C273.809 523.413 273.696 521.342 274.087 518.995ZM278.699 519.767C278.446 521.287 278.461 522.607 278.742 523.727C279.017 524.846 279.519 525.744 280.249 526.421C280.979 527.097 281.894 527.528 282.993 527.712C284.093 527.896 285.098 527.787 286.007 527.384C286.916 526.982 287.686 526.297 288.315 525.329C288.936 524.36 289.374 523.116 289.627 521.596C289.88 520.075 289.869 518.756 289.594 517.637C289.313 516.517 288.807 515.618 288.077 514.942C287.347 514.265 286.433 513.835 285.333 513.651C284.233 513.467 283.229 513.576 282.319 513.978C281.41 514.38 280.644 515.066 280.022 516.035C279.393 517.002 278.952 518.246 278.699 519.767Z" fill="#A331FD"/>
<path d="M254.711 502.529L247.646 523.171L243.284 521.67L249.118 504.626L240.274 501.58L241.506 497.982L254.711 502.529Z" fill="#A331FD"/>
<path d="M216.767 486.781L221.111 489.139L204.131 504.747L198.907 501.912L202.657 479.122L207.001 481.48L203.811 498.901L203.961 498.982L216.767 486.781ZM212.966 494.476L202.704 488.906L204.414 485.737L214.676 491.307L212.966 494.476Z" fill="#A331FD"/>
<path d="M187.021 468.452L173.645 485.689L166.759 480.313C165.494 479.326 164.584 478.314 164.031 477.278C163.477 476.242 163.246 475.224 163.339 474.225C163.427 473.23 163.807 472.301 164.477 471.437C165 470.764 165.594 470.277 166.259 469.976C166.919 469.681 167.611 469.554 168.334 469.596C169.047 469.638 169.755 469.826 170.458 470.159L170.589 469.991C169.956 469.452 169.486 468.788 169.181 468C168.87 467.207 168.775 466.363 168.895 465.466C169.012 464.575 169.399 463.705 170.056 462.858C170.766 461.943 171.626 461.304 172.637 460.94C173.638 460.577 174.739 460.531 175.94 460.802C177.141 461.073 178.386 461.711 179.673 462.716L187.021 468.452ZM181.073 468.593L178.108 466.279C177.095 465.488 176.206 465.105 175.441 465.129C174.671 465.159 174.034 465.499 173.529 466.15C173.159 466.627 172.947 467.138 172.894 467.682C172.84 468.225 172.946 468.767 173.21 469.307C173.469 469.842 173.889 470.337 174.471 470.792L177.52 473.172L181.073 468.593ZM175.606 475.638L172.91 473.533C172.412 473.144 171.902 472.886 171.381 472.758C170.85 472.632 170.346 472.644 169.87 472.795C169.387 472.941 168.97 473.241 168.617 473.696C168.134 474.319 167.966 474.993 168.112 475.72C168.252 476.443 168.726 477.119 169.532 477.748L172.295 479.905L175.606 475.638Z" fill="#A331FD"/>
<path d="M137.362 437.097C139.11 435.483 140.902 434.442 142.738 433.974C144.569 433.502 146.332 433.537 148.026 434.08C149.71 434.623 151.203 435.603 152.504 437.021C153.815 438.45 154.668 440.03 155.064 441.763C155.459 443.496 155.346 445.258 154.724 447.05C154.103 448.841 152.921 450.542 151.178 452.151C149.43 453.765 147.641 454.808 145.809 455.281C143.978 455.754 142.22 455.719 140.536 455.176C138.847 454.638 137.347 453.655 136.036 452.227C134.734 450.809 133.886 449.233 133.491 447.5C133.086 445.767 133.194 444.005 133.815 442.213C134.431 440.416 135.614 438.711 137.362 437.097ZM140.524 440.543C139.392 441.588 138.593 442.64 138.128 443.698C137.657 444.751 137.502 445.769 137.662 446.752C137.823 447.735 138.28 448.637 139.034 449.459C139.788 450.28 140.646 450.812 141.61 451.053C142.574 451.294 143.6 451.226 144.69 450.848C145.775 450.465 146.884 449.751 148.016 448.705C149.148 447.66 149.95 446.611 150.42 445.558C150.885 444.5 151.038 443.479 150.878 442.496C150.717 441.513 150.26 440.611 149.506 439.789C148.752 438.968 147.894 438.436 146.93 438.195C145.966 437.954 144.942 438.025 143.857 438.408C142.767 438.785 141.656 439.497 140.524 440.543Z" fill="#A331FD"/>
<path d="M132.909 413.257L114.66 425.216L109.962 418.003C109.062 416.622 108.541 415.282 108.399 413.983C108.246 412.682 108.452 411.482 109.015 410.382C109.569 409.281 110.449 408.335 111.655 407.544C112.867 406.75 114.08 406.329 115.294 406.281C116.503 406.236 117.662 406.559 118.773 407.249C119.88 407.933 120.891 408.977 121.806 410.382L124.952 415.211L121.851 417.243L119.112 413.039C118.631 412.301 118.131 411.754 117.611 411.398C117.091 411.043 116.552 410.878 115.993 410.905C115.43 410.926 114.848 411.133 114.248 411.526C113.643 411.923 113.211 412.38 112.954 412.896C112.693 413.407 112.617 413.979 112.725 414.613C112.823 415.245 113.114 415.933 113.599 416.677L115.297 419.283L130.392 409.392L132.909 413.257ZM118.173 408.826L123.519 398.841L126.298 403.108L120.889 412.995L118.173 408.826Z" fill="#A331FD"/>
<path d="M111.902 376.359L113.883 380.888L90.8941 382.774L88.5121 377.327L105.469 361.65L107.45 366.179L94.2326 377.965L94.3009 378.121L111.902 376.359ZM104.176 380.096L99.4976 369.398L102.794 367.948L107.472 378.646L104.176 380.096Z" fill="#A331FD"/>
<path d="M81.1985 328.445L82.3408 332.969C81.7765 333.2 81.2994 333.501 80.9094 333.871C80.5125 334.243 80.2027 334.67 79.9801 335.151C79.7574 335.633 79.626 336.157 79.5861 336.724C79.5444 337.284 79.6 337.867 79.753 338.473C80.0295 339.568 80.5422 340.453 81.2912 341.127C82.0333 341.804 82.9771 342.234 84.1227 342.42C85.2613 342.607 86.5638 342.514 88.03 342.142C89.5376 341.759 90.7477 341.213 91.6603 340.505C92.5712 339.79 93.1857 338.96 93.5037 338.015C93.8217 337.069 93.846 336.063 93.5765 334.995C93.4252 334.396 93.2061 333.862 92.9191 333.393C92.6304 332.916 92.2842 332.517 91.8804 332.195C91.4698 331.874 91.0112 331.639 90.5046 331.489C89.9962 331.332 89.4468 331.274 88.8562 331.314L87.7346 326.785C88.7347 326.655 89.7448 326.71 90.7648 326.949C91.7762 327.183 92.7355 327.603 93.6427 328.208C94.5413 328.808 95.3336 329.596 96.0196 330.572C96.697 331.543 97.2069 332.707 97.5494 334.063C98.0258 335.95 98.025 337.746 97.5469 339.45C97.0672 341.147 96.1271 342.632 94.7268 343.903C93.3247 345.168 91.4741 346.092 89.1749 346.676C86.8689 347.262 84.7975 347.327 82.9607 346.87C81.124 346.413 79.5945 345.548 78.3723 344.276C77.1431 343.005 76.2939 341.44 75.8244 339.581C75.515 338.355 75.4002 337.176 75.4801 336.041C75.5583 334.9 75.8252 333.84 76.2809 332.859C76.7296 331.881 77.3647 331.016 78.186 330.265C79.0055 329.507 80.0097 328.9 81.1985 328.445ZM97.4774 335.258L96.9662 333.233L97.9063 333.17C97.8373 332.433 97.9563 331.787 98.2632 331.233C98.5684 330.672 99.0815 330.296 99.8025 330.106C100.826 329.838 101.762 330.106 102.61 330.909C103.464 331.711 104.109 332.976 104.546 334.704L102.594 335.244C102.375 334.376 102.097 333.725 101.76 333.291C101.429 332.847 101.04 332.671 100.594 332.762C100.171 332.855 99.8916 333.098 99.7565 333.492C99.6214 333.885 99.5995 334.451 99.6908 335.19L97.4774 335.258Z" fill="#A331FD"/>
<path d="M91.6874 301.799L92.0944 306.726L69.731 301.026L69.2416 295.102L90.3655 285.799L90.7725 290.725L74.448 297.566L74.462 297.736L91.6874 301.799ZM83.1663 302.817L82.205 291.181L85.7934 290.883L86.7548 302.519L83.1663 302.817ZM67.5935 301.289L67.7686 303.798C66.4168 303.91 65.3524 303.664 64.5754 303.058C63.7985 302.453 63.3665 301.666 63.2793 300.697C63.2384 300.201 63.2847 299.77 63.4182 299.402C63.5447 299.035 63.7021 298.698 63.8905 298.39C64.0788 298.082 64.2436 297.791 64.3847 297.515C64.5188 297.24 64.5733 296.951 64.5481 296.646C64.5071 296.237 64.3292 295.938 64.0144 295.75C63.692 295.556 63.2865 295.479 62.7982 295.52L62.6681 293.04C64.007 292.943 65.0684 293.197 65.8524 293.801C66.6293 294.407 67.0611 295.19 67.1477 296.152C67.198 296.676 67.1567 297.125 67.0238 297.499C66.8902 297.866 66.7319 298.193 66.5489 298.479C66.3588 298.766 66.1928 299.043 66.0511 299.312C65.9094 299.58 65.8516 299.873 65.878 300.192C65.9084 300.56 66.078 300.845 66.3869 301.048C66.6958 301.25 67.098 301.331 67.5935 301.289Z" fill="#A331FD"/>
<path d="M81.3084 247.751C83.6795 247.948 85.6595 248.565 87.2486 249.603C88.8382 250.633 90.0081 251.956 90.7583 253.572C91.502 255.18 91.7946 256.943 91.6361 258.861C91.4764 260.794 90.8943 262.492 89.8898 263.955C88.8852 265.418 87.5145 266.526 85.7775 267.279C84.0405 268.033 81.99 268.312 79.626 268.115C77.2549 267.918 75.2746 267.305 73.685 266.274C72.0953 265.244 70.9287 263.925 70.185 262.317C69.4342 260.708 69.1387 258.937 69.2983 257.005C69.4568 255.087 70.0383 253.396 71.0429 251.933C72.0409 250.463 73.4084 249.35 75.1454 248.597C76.883 247.836 78.9373 247.554 81.3084 247.751ZM80.9233 252.412C79.3874 252.285 78.0732 252.407 76.9806 252.779C75.8885 253.145 75.0358 253.719 74.4224 254.502C73.809 255.285 73.4564 256.232 73.3646 257.343C73.2728 258.454 73.4651 259.447 73.9417 260.32C74.4183 261.193 75.1649 261.904 76.1815 262.452C77.1986 262.992 78.4752 263.327 80.0111 263.454C81.547 263.582 82.8609 263.463 83.953 263.098C85.0456 262.725 85.8986 262.148 86.512 261.365C87.1254 260.582 87.478 259.635 87.5698 258.524C87.6617 257.412 87.4693 256.42 86.9927 255.546C86.5161 254.673 85.7692 253.966 84.7521 253.425C83.7355 252.878 82.4592 252.54 80.9233 252.412Z" fill="#A331FD"/>
<path d="M102.889 173.817L106.185 175.267L102.198 184.383L98.9016 182.933L102.889 173.817Z" fill="#A331FD"/>
<path d="M146.997 124.959L130.967 110.158L136.788 103.816C137.907 102.597 139.092 101.773 140.344 101.343C141.591 100.909 142.831 100.845 144.063 101.152C145.295 101.448 146.443 102.088 147.507 103.071C148.572 104.054 149.3 105.151 149.691 106.363C150.083 107.575 150.104 108.828 149.756 110.121C149.413 111.408 148.675 112.67 147.541 113.905L143.831 117.947L141.115 115.439L144.321 111.946C144.921 111.292 145.304 110.65 145.468 110.019C145.633 109.378 145.61 108.767 145.4 108.187C145.19 107.596 144.822 107.058 144.294 106.571C143.762 106.08 143.199 105.758 142.606 105.607C142.012 105.445 141.409 105.477 140.796 105.704C140.177 105.926 139.566 106.367 138.961 107.026L136.857 109.318L150.117 121.56L146.997 124.959Z" fill="#A331FD"/>
<path d="M174.435 97.7949L161.058 80.558L167.844 75.2611C169.143 74.2472 170.432 73.6147 171.711 73.3637C172.992 73.1027 174.202 73.2079 175.341 73.6793C176.481 74.1407 177.493 74.9409 178.377 76.0799C179.265 77.2246 179.783 78.4016 179.931 79.611C180.074 80.8148 179.847 82.0005 179.252 83.168C178.662 84.3311 177.707 85.4284 176.386 86.4598L171.843 90.0064L169.57 87.0774L173.525 83.9898C174.219 83.4478 174.722 82.9023 175.033 82.3531C175.344 81.804 175.463 81.2512 175.391 80.6949C175.325 80.1342 175.071 79.5704 174.632 79.0037C174.188 78.4314 173.698 78.0385 173.164 77.8249C172.635 77.6069 172.06 77.5783 171.439 77.7391C170.819 77.8898 170.159 78.2384 169.459 78.7847L167.007 80.6989L178.071 94.9564L174.435 97.7949ZM177.635 82.7003L187.997 87.2077L183.983 90.3412L173.713 85.7618L177.635 82.7003Z" fill="#A331FD"/>
<path d="M216.847 57.1848C217.977 59.2787 218.542 61.2753 218.542 63.1744C218.548 65.0702 218.079 66.7749 217.137 68.2885C216.197 69.7926 214.881 71.0037 213.19 71.9218C211.486 72.8468 209.747 73.2893 207.975 73.2495C206.202 73.2096 204.526 72.6687 202.947 71.6268C201.368 70.5848 200.015 69.02 198.889 66.9324C197.759 64.8384 197.191 62.8436 197.185 60.9479C197.179 59.0521 197.646 57.3522 198.585 55.8482C199.522 54.3379 200.842 53.1203 202.546 52.1954C204.238 51.2772 205.97 50.838 207.743 50.8779C209.518 50.9081 211.195 51.4442 212.774 52.4861C214.36 53.5247 215.717 55.0909 216.847 57.1848ZM212.737 59.4159C212.005 58.0595 211.185 57.0258 210.277 56.3147C209.375 55.6002 208.429 55.2006 207.439 55.1157C206.449 55.0308 205.464 55.2543 204.484 55.7863C203.504 56.3182 202.778 57.023 202.308 57.9007C201.837 58.7784 201.65 59.793 201.747 60.9445C201.85 62.0927 202.267 63.345 202.999 64.7013C203.731 66.0576 204.548 67.0931 205.45 67.8075C206.358 68.5186 207.307 68.9166 208.297 69.0015C209.287 69.0864 210.272 68.8629 211.252 68.3309C212.232 67.799 212.958 67.0942 213.428 66.2165C213.899 65.3388 214.083 64.3259 213.98 63.1777C213.883 62.0262 213.469 60.7722 212.737 59.4159Z" fill="#A331FD"/>
<path d="M237.136 36.8685L243.705 42.4715L243.866 42.416L245.638 33.9412L250.564 32.2452L247.801 44.7342L257.77 52.8391L252.754 54.5664L246.112 48.9776L245.951 49.0331L244.131 57.5353L239.135 59.2556L242.059 46.7111L232.19 38.5715L237.136 36.8685Z" fill="#A331FD"/>
<path d="M285.959 24.3785L289.54 45.9008L284.99 46.6623L281.409 25.14L285.959 24.3785Z" fill="#A331FD"/>
<path d="M312.716 22.1818H318.405L324.413 36.8409H324.669L330.678 22.1818H336.367V44H331.892V29.799H331.711L326.065 43.8935H323.018L317.372 29.7457H317.19V44H312.716V22.1818Z" fill="#A331FD"/>
<path d="M370.222 25.5802L366.641 47.1026L362.091 46.3411L365.672 24.8188L370.222 25.5802Z" fill="#A331FD"/>
<path d="M399.331 55.6281L392.018 53.1101L399.083 32.4676L406.457 35.0064C408.532 35.7209 410.177 36.7492 411.391 38.0914C412.608 39.4268 413.356 41.0026 413.635 42.8189C413.921 44.6374 413.697 46.6185 412.964 48.762C412.228 50.9123 411.189 52.6202 409.847 53.886C408.512 55.154 406.948 55.9411 405.154 56.2474C403.367 56.5559 401.426 56.3495 399.331 55.6281ZM397.659 50.8724L400.429 51.8262C401.719 52.2702 402.881 52.4151 403.918 52.2611C404.963 52.1027 405.872 51.616 406.647 50.801C407.43 49.9815 408.085 48.8024 408.612 47.2637C409.134 45.7383 409.336 44.4144 409.217 43.2919C409.105 42.1716 408.687 41.2316 407.964 40.4718C407.241 39.7119 406.234 39.11 404.945 38.6661L402.165 37.7088L397.659 50.8724Z" fill="#A331FD"/>
<path d="M432.233 69.6403L427.889 67.2822L444.869 51.6739L450.093 54.5097L446.343 77.2991L441.999 74.941L445.189 57.5203L445.039 57.4389L432.233 69.6403ZM436.034 61.9455L446.296 67.5155L444.586 70.6845L434.324 65.1145L436.034 61.9455Z" fill="#A331FD"/>
<path d="M467.291 92.1153L461.194 87.356L474.57 70.1191L480.717 74.9177C482.447 76.2682 483.669 77.7758 484.382 79.4405C485.099 81.0997 485.295 82.8339 484.969 84.6433C484.65 86.457 483.795 88.2588 482.406 90.0487C481.013 91.8442 479.477 93.1228 477.798 93.8845C476.125 94.6506 474.39 94.887 472.595 94.5939C470.806 94.305 469.037 93.4789 467.291 92.1153ZM467.253 87.072L469.563 88.8748C470.638 89.7139 471.69 90.2289 472.719 90.4199C473.759 90.6097 474.777 90.4448 475.773 89.9252C476.78 89.4044 477.781 88.5016 478.779 87.2167C479.767 85.943 480.387 84.7558 480.639 83.655C480.897 82.5585 480.807 81.5333 480.369 80.5792C479.932 79.6252 479.176 78.7286 478.101 77.8895L475.783 76.0801L467.253 87.072Z" fill="#A331FD"/>
<path d="M492.694 114.816L508.725 100.015L518.666 110.846L515.871 113.426L509.049 105.994L505.23 109.52L511.54 116.396L508.746 118.976L502.435 112.1L498.608 115.634L505.459 123.098L502.664 125.678L492.694 114.816Z" fill="#A331FD"/>
<path d="M551.17 185.385L547.874 186.835L543.887 177.718L547.183 176.268L551.17 185.385Z" fill="#A331FD"/>
<path d="M572.715 268.827L572.33 264.176C572.925 264.041 573.445 263.823 573.891 263.523C574.343 263.221 574.719 262.852 575.018 262.413C575.316 261.975 575.532 261.48 575.664 260.927C575.798 260.382 575.838 259.797 575.787 259.175C575.694 258.049 575.333 257.092 574.705 256.303C574.084 255.514 573.224 254.933 572.124 254.562C571.031 254.189 569.731 254.066 568.224 254.191C566.674 254.32 565.39 254.658 564.374 255.206C563.358 255.76 562.615 256.478 562.146 257.358C561.677 258.238 561.488 259.226 561.579 260.323C561.63 260.939 561.758 261.502 561.964 262.012C562.171 262.53 562.447 262.981 562.792 263.365C563.145 263.749 563.559 264.057 564.034 264.288C564.51 264.527 565.042 264.675 565.631 264.733L565.994 269.385C564.986 269.348 563.999 269.127 563.032 268.723C562.073 268.325 561.195 267.753 560.399 267.006C559.611 266.267 558.959 265.359 558.443 264.283C557.934 263.213 557.622 261.981 557.507 260.587C557.346 258.648 557.642 256.877 558.393 255.275C559.145 253.68 560.316 252.371 561.906 251.348C563.497 250.333 565.475 249.726 567.839 249.53C570.21 249.333 572.264 249.611 574.001 250.365C575.738 251.118 577.105 252.223 578.102 253.68C579.106 255.136 579.686 256.819 579.844 258.73C579.948 259.99 579.868 261.173 579.603 262.278C579.339 263.391 578.901 264.393 578.291 265.284C577.687 266.175 576.919 266.923 575.985 267.528C575.052 268.14 573.962 268.573 572.715 268.827Z" fill="#A331FD"/>
<path d="M579.039 303.811L578.66 308.408L564.539 307.235C562.954 307.103 561.598 306.609 560.471 305.753C559.344 304.904 558.504 303.775 557.95 302.368C557.404 300.961 557.205 299.359 557.353 297.561C557.502 295.756 557.962 294.205 558.732 292.908C559.509 291.612 560.523 290.637 561.774 289.986C563.025 289.335 564.443 289.075 566.029 289.206L580.149 290.38L579.769 294.977L566.042 293.836C565.214 293.768 564.463 293.887 563.789 294.194C563.114 294.509 562.565 294.984 562.142 295.618C561.719 296.253 561.471 297.013 561.398 297.898C561.325 298.789 561.445 299.58 561.758 300.269C562.071 300.965 562.535 301.52 563.149 301.934C563.763 302.356 564.484 302.601 565.312 302.67L579.039 303.811Z" fill="#A331FD"/>
<path d="M571.57 344.723L550.423 339.351L551.552 334.879L572.699 340.25L571.57 344.723Z" fill="#A331FD"/>
<path d="M539.305 371.313L542.404 364.226L562.375 373.012L559.251 380.157C558.371 382.168 557.214 383.723 555.78 384.822C554.352 385.924 552.723 386.539 550.893 386.664C549.06 386.797 547.107 386.407 545.033 385.495C542.953 384.579 541.337 383.399 540.186 381.954C539.032 380.515 538.376 378.888 538.217 377.072C538.055 375.263 538.417 373.343 539.305 371.313ZM544.174 370.044L543 372.729C542.454 373.978 542.215 375.126 542.284 376.173C542.357 377.229 542.768 378.178 543.516 379.019C544.268 379.87 545.388 380.623 546.877 381.278C548.353 381.927 549.654 382.24 550.781 382.216C551.905 382.198 552.874 381.86 553.689 381.202C554.504 380.544 555.185 379.591 555.731 378.341L556.909 375.647L544.174 370.044Z" fill="#A331FD"/>
<path d="M522.735 403.057L525.433 398.915L539.571 417.184L536.326 422.165L513.972 416.509L516.67 412.367L533.732 417.014L533.825 416.871L522.735 403.057ZM530.077 407.498L523.704 417.282L520.692 415.308L527.065 405.525L530.077 407.498Z" fill="#A331FD"/>
<path d="M497.585 436.276L502.815 430.578L518.846 445.378L513.572 451.124C512.088 452.74 510.49 453.836 508.777 454.41C507.07 454.989 505.33 455.041 503.559 454.566C501.783 454.095 500.063 453.092 498.398 451.555C496.728 450.013 495.584 448.372 494.965 446.63C494.341 444.894 494.248 443.141 494.687 441.371C495.121 439.607 496.087 437.908 497.585 436.276ZM502.6 436.657L500.619 438.816C499.697 439.82 499.099 440.829 498.824 441.842C498.551 442.865 498.631 443.896 499.065 444.936C499.5 445.985 500.315 447.061 501.51 448.164C502.695 449.258 503.823 449.976 504.897 450.32C505.965 450.668 506.991 450.663 507.975 450.306C508.959 449.948 509.912 449.267 510.834 448.262L512.822 446.096L502.6 436.657Z" fill="#A331FD"/>
<path d="M466.94 478.42C465.481 476.54 464.596 474.663 464.284 472.79C463.966 470.92 464.147 469.161 464.828 467.513C465.507 465.874 466.605 464.463 468.122 463.279C469.651 462.086 471.292 461.363 473.047 461.11C474.802 460.857 476.544 461.115 478.272 461.883C480.001 462.651 481.592 463.972 483.047 465.846C484.505 467.726 485.394 469.6 485.711 471.469C486.029 473.339 485.849 475.092 485.169 476.731C484.494 478.375 483.393 479.794 481.864 480.987C480.347 482.171 478.711 482.89 476.956 483.142C475.2 483.405 473.458 483.152 471.729 482.384C469.995 481.621 468.399 480.299 466.94 478.42ZM470.627 475.542C471.571 476.759 472.55 477.644 473.563 478.196C474.57 478.752 475.569 478.991 476.559 478.912C477.549 478.832 478.484 478.449 479.363 477.763C480.242 477.077 480.841 476.262 481.161 475.319C481.481 474.376 481.498 473.344 481.213 472.224C480.923 471.108 480.305 469.941 479.36 468.724C478.415 467.506 477.439 466.619 476.432 466.063C475.419 465.511 474.418 465.275 473.428 465.354C472.437 465.433 471.503 465.816 470.624 466.502C469.745 467.188 469.146 468.003 468.826 468.946C468.506 469.89 468.491 470.919 468.782 472.035C469.067 473.155 469.682 474.324 470.627 475.542Z" fill="#A331FD"/>
<path d="M398.061 512.61L396.895 509.203L406.303 505.964L407.469 509.371L398.061 512.61Z" fill="#A331FD"/>
</svg>
